<svg xmlns="http://www.w3.org/2000/svg" viewBox="0 0 1500 1500" role="img" aria-labelledby="mik-standard-rounded-title"><title id="mik-standard-rounded-title">MIK standard rounded logo</title><path d="m750.001 0 176.665.041 49.611.122 35.234.204 28.261.286 23.987.368 21.043.449 18.865.531 17.174.614 15.813.696 14.688.778 13.738.862 12.923.944 12.211 1.028 11.585 1.111 11.026 1.195 10.525 1.279 10.069 1.365 9.655 1.449 9.274 1.535 8.923 1.621 8.597 1.707 8.294 1.795 8.009 1.882 7.743 1.971 7.492 2.06 7.254 2.15 7.029 2.24 6.815 2.332 6.612 2.424 6.416 2.517 6.23 2.611 6.05 2.706 5.879 2.803 5.712 2.9 5.553 2.999 5.398 3.098 5.248 3.2 5.103 3.303 4.962 3.407 4.825 3.513 4.692 3.621 4.562 3.73 4.435 3.842 4.312 3.956 4.19 4.072 4.072 4.19 3.956 4.312 3.842 4.435 3.73 4.562 3.621 4.692 3.513 4.825 3.407 4.962 3.303 5.103 3.2 5.248 3.098 5.398 2.999 5.553 2.9 5.712 2.803 5.879 2.706 6.05 2.611 6.23 2.517 6.416 2.424 6.612 2.332 6.815 2.24 7.029 2.15 7.254 2.06 7.492 1.971 7.743 1.882 8.009 1.795 8.294 1.707 8.597 1.621 8.923 1.535 9.274 1.449 9.655 1.365 10.069 1.279 10.525 1.195 11.026 1.111 11.585 1.028 12.211.944 12.923.862 13.738.778 14.688.696 15.813.614 17.174.531 18.865.449 21.043.368 23.987.286 28.261.204 35.234.122 49.611L1500 750l-.041 176.666-.122 49.611-.204 35.234-.286 28.261-.368 23.987-.449 21.043-.531 18.865-.614 17.174-.696 15.813-.778 14.688-.862 13.738-.944 12.923-1.028 12.211-1.111 11.585-1.195 11.026-1.279 10.525-1.365 10.069-1.449 9.655-1.535 9.274-1.621 8.923-1.707 8.597-1.795 8.294-1.882 8.009-1.971 7.743-2.06 7.492-2.15 7.254-2.24 7.029-2.332 6.815-2.424 6.612-2.517 6.416-2.611 6.23-2.706 6.05-2.803 5.879-2.9 5.712-2.999 5.553-3.098 5.398-3.2 5.248-3.303 5.103-3.407 4.962-3.513 4.825-3.621 4.692-3.73 4.562-3.842 4.435-3.956 4.312-4.072 4.19-4.19 4.072-4.312 3.956-4.435 3.842-4.562 3.73-4.692 3.621-4.825 3.513-4.962 3.407-5.103 3.303-5.248 3.2-5.398 3.098-5.553 2.999-5.712 2.9-5.879 2.803-6.05 2.706-6.23 2.611-6.416 2.517-6.612 2.424-6.815 2.332-7.029 2.24-7.254 2.15-7.492 2.06-7.743 1.971-8.009 1.882-8.294 1.795-8.597 1.707-8.923 1.621-9.274 1.535-9.655 1.449-10.069 1.365-10.525 1.279-11.026 1.195-11.585 1.111-12.211 1.028-12.923.944-13.738.862-14.688.778-15.813.696-17.174.614-18.865.531-21.043.449-23.987.368-28.261.286-35.234.204-49.611.122-176.665.041-176.667-.041-49.611-.122-35.234-.204-28.261-.286-23.987-.368-21.043-.449-18.865-.531-17.174-.614-15.813-.696-14.688-.778-13.738-.862-12.923-.944-12.211-1.028-11.585-1.111-11.026-1.195-10.525-1.279-10.069-1.365-9.655-1.449-9.274-1.535-8.923-1.621-8.597-1.707-8.294-1.795-8.009-1.882-7.743-1.971-7.492-2.06-7.254-2.15-7.029-2.24-6.815-2.332-6.612-2.424-6.416-2.517-6.23-2.611-6.05-2.706-5.879-2.803-5.712-2.9-5.553-2.999-5.398-3.098-5.248-3.2-5.103-3.303-4.962-3.407-4.825-3.513-4.692-3.621-4.562-3.73-4.435-3.842-4.312-3.956-4.19-4.072-4.072-4.19-3.956-4.312-3.842-4.435-3.73-4.562-3.621-4.692-3.513-4.825-3.407-4.962-3.303-5.103-3.2-5.248-3.098-5.398-2.999-5.553-2.9-5.712-2.803-5.879-2.706-6.05-2.611-6.23-2.517-6.416-2.424-6.612-2.332-6.815-2.24-7.029-2.15-7.254-2.06-7.492-1.971-7.743-1.882-8.009-1.795-8.294-1.707-8.597-1.621-8.923-1.535-9.274-1.449-9.655-1.365-10.069-1.279-10.525-1.195-11.026-1.111-11.585-1.028-12.211-.944-12.923-.862-13.738-.778-14.688-.696-15.813-.614-17.174-.531-18.865-.449-21.043-.368-23.987-.286-28.261-.204-35.234-.122-49.611L0 750.002l.041-176.668.122-49.611.204-35.234.286-28.261.368-23.987.449-21.043.531-18.865.614-17.174.696-15.813.778-14.688.862-13.738.944-12.923 1.028-12.211 1.111-11.585 1.195-11.026 1.279-10.525 1.365-10.069 1.449-9.655 1.535-9.274 1.621-8.923 1.707-8.597 1.795-8.294 1.882-8.009 1.971-7.743 2.06-7.492 2.15-7.254 2.24-7.029 2.332-6.815 2.424-6.612 2.517-6.416 2.611-6.23 2.706-6.05 2.803-5.879 2.9-5.712 2.999-5.553 3.098-5.398 3.2-5.248 3.303-5.103 3.407-4.962 3.513-4.825 3.621-4.692 3.73-4.562 3.842-4.435 3.956-4.312 4.072-4.19 4.19-4.072 4.312-3.956 4.435-3.842 4.562-3.73 4.692-3.621 4.825-3.513 4.962-3.407 5.103-3.303 5.248-3.2 5.398-3.098 5.553-2.999 5.712-2.9 5.879-2.803 6.05-2.706 6.23-2.611 6.416-2.517 6.612-2.424 6.815-2.332 7.029-2.24 7.254-2.15 7.492-2.06 7.743-1.971 8.009-1.882 8.294-1.795 8.597-1.707 8.923-1.621 9.274-1.535 9.655-1.449 10.069-1.365 10.525-1.279 11.026-1.195 11.585-1.111 12.211-1.028 12.923-.944 13.738-.862 14.688-.778 15.813-.696 17.174-.614 18.865-.531 21.043-.449 23.987-.368 28.261-.286 35.234-.204 49.611-.122Z" style="fill:#bffff9"/><path d="M232.7 844.1c.6-8.5 1-17.1 1.8-25.6.6-5.9 1.3-11.7 1.9-17.5.2-2.5.3-5 .6-7.5.6-6.1 1.2-12.2 2-18.3.4-3.3 1-6.5 1.4-9.8.9-6.9 1.7-13.8 2.9-20.6.4-2.6 1-5.2 1.5-7.8.4-2.1.6-4.1 1-6.2 1.1-6 2.4-12 3.6-18 .6-2.9 1-5.8 1.7-8.6 1.6-7.3 3.3-14.6 5-21.9 1.8-7.8 3.6-15.6 5.5-23.4.4-1.6.9-3.3 1.3-4.9 2-8.2 4.1-16.3 6.8-24.3 2.1-6.2 3.9-12.5 6.4-18.6.6-1.5 1.3-2.9 2-4.3 2.2-4.4 4.5-8.7 7.3-12.7 5.9-8.5 13.5-15.7 22.2-21.2 9.5-6.1 20.4-10 31.4-12.3 10-2 20.6-2.3 30.6.4 10.6 2.9 20.2 9.4 26.9 18.2 6.2 8.2 10.2 17.7 13.9 27.2 2.6 6.7 4.7 13.6 6.6 20.5.6 2.2 1 4.4 1.6 6.7.9 3.3 1.7 6.6 2.5 9.9.4 1.7.7 3.4 1 5.1l1.8 7.5c.5 2.3.9 4.6 1.3 6.9.4 2 .9 3.9 1.4 5.9 3.1 15.2 5.9 30.4 8.8 45.7.7 3.7 1.5 7.5 2.1 11.2.5 2.7.8 5.3 1.2 8 .5 2.9 1.2 5.8 1.6 8.7 2.6 16.6 5.1 33.1 7.6 49.7 1.1 7.4 2.1 14.8 3.5 22.1 1.1 5.6 2.3 11.1 4.8 16.3 2 4 4.9 9.6 10.2 9.3 3.1-.1 5.6-2.3 7.8-4.4 3.1-3 5.4-6.8 7.4-10.6 1.9-3.5 3.5-7.1 5.2-10.7 2.4-5.3 4.9-10.7 7.1-16 1.6-3.7 3-7.5 4.4-11.3 2-5.3 4.1-10.6 6.2-15.8 2.9-7.5 6-15 9-22.5 1.6-4 3.1-8.1 4.7-12.1 3.5-8.7 7.2-17.4 10.8-26 4.3-10.1 8.3-20.3 12.7-30.4 3.1-7 6.5-14 9.7-21 3.5-7.7 7-15.5 10.7-23.1 3.2-6.6 6.6-13.2 9.9-19.8 3.6-7 7-14.2 10.5-21.2l6.9-13.2c5-9.5 9.8-19.1 14.9-28.6 2.6-4.8 5.4-9.5 8-14.3 3.2-5.6 6.5-11.2 10-16.7 3.4-5.2 6.4-10.6 10.2-15.5 12.4-16.1 32.1-31.1 53.6-25.8 9.5 2.3 17.9 8.2 23.3 16.4 3.6 5.4 5.8 11.4 7.5 17.5 3 10.6 4.1 21.6 4.5 32.5.4 9.8.1 19.7-.2 29.5-.3 9.6-.7 19.2-1.4 28.9-.4 5.4-.8 10.7-1.1 16.1-.1 2.6-.2 5.2-.3 7.7-.7 11.7-1.5 23.3-2.4 35-.4 5.5-1.2 11-1.7 16.5-.8 9.1-1.3 18.3-1.9 27.4-.2 2.5-.5 4.9-.7 7.4-.8 11.3-1.7 22.7-2.4 34-.2 2.9-.2 5.8-.4 8.7-.8 12.3-1.9 24.6-2.6 36.9-.4 6.1-.4 12.3-.7 18.5-.4 8.2-1.1 16.4-1.7 24.6-.8 10.8-.9 21.6-1.9 32.4-.5 5.8-1.2 11.5-2.1 17.2-.6 3.7-1.5 7.4-2.2 11.1-1.4 6.6-2.9 13.2-5.3 19.6-1.9 5.2-4.5 10.2-7.1 15.1-2.9 5.4-6.5 10.6-10.4 15.3-7.1 8.5-14.9 16-24.2 21.9-7.6 4.8-16.7 8.4-25.8 8.1-5.1-.2-10.3-1.5-14.7-4.2-5.8-3.6-9.9-9.4-12.4-15.7-3.8-9.7-4.5-20.5-4.8-30.8-.3-7.6-.1-15.2.1-22.8.1-3.6.2-7.1.4-10.7.3-6 .9-12 1.2-18 .6-12.3.8-24.6 1.3-37 .4-11 1-22.1 1.1-33.1.1-12.3-.2-24.7 0-37 .2-14.2 1.3-28.3 1.2-42.5 0-4.8-.1-9.7-1.1-14.4-.3-1.6-.9-4.7-2.7-5.2-1.6-.5-3 .9-3.9 1.9-2.4 2.5-4 5.6-5.5 8.7-3.3 6.7-5.9 13.7-8.7 20.6-7 17.2-13.7 34.5-20.9 51.6-1.4 3.4-3 6.8-4.5 10.3-3.8 8.8-7.7 17.6-11.7 26.3-1.5 3.4-3.3 6.6-4.8 10q-7.5 16.05-15.9 31.8c-2 3.7-4.1 7.3-6.1 10.9-2.7 4.9-5.7 9.7-9.5 13.9-5.1 5.7-11.6 10.5-19 12.6-7.5 2.1-15.5 1.3-22.6-1.9-7.6-3.4-13.7-9.2-18.7-15.7-5.9-7.7-10.1-16.5-13.7-25.5-2.6-6.7-4.7-13.6-6.6-20.5-.6-2.2-1-4.4-1.6-6.7-3.6-13.7-6.3-27.6-8.9-41.5-.4-2.3-1-4.5-1.4-6.8l-6-30c-3.5-17.7-6.9-35.5-10.6-53.2-.4-2-.9-3.9-1.4-5.9-.6-2.6-.9-5.2-1.5-7.7l-1.8-7.5c-.9-4.5-2-9-3-13.5-1.2-5-2.2-10.1-3.5-15.1-.7-2.7-1.3-5.4-2.3-8.1-.5-1.5-1.2-3-1.8-4.5-.8-1.8-1.7-3.5-3.1-4.9-.9-1-1.8-1.8-3.2-2-1.7-.2-2.8.7-3.9 1.9-2.4 2.5-3.5 5.8-4.6 9-2.4 6.8-3.9 13.7-5.4 20.8-.9 4.3-1.8 8.5-2.6 12.9-.8 4.7-1.4 9.5-2 14.3-.6 4.2-1.3 8.3-1.8 12.5-.8 6.7-1.5 13.5-2.2 20.2-.8 7.3-1.7 14.7-2.4 22-.3 3.1-.4 6.3-.7 9.4-.5 6.1-1.4 12.2-2 18.4-.6 6.6-.9 13.2-1.4 19.8-.4 4.6-1.1 9.2-1.4 13.8-.7 9.1-1.2 18.3-1.9 27.4-.2 2.2-.5 4.3-.6 6.5l-.9 13.2c-.1 1.9-.3 3.8-.4 5.7s-.3 3.8-.4 5.7-.3 3.8-.4 5.7c-.2 2.2-.4 4.3-.6 6.5s-.4 4.4-.5 6.6c-.2 2.2-.3 4.4-.5 6.6s-.3 4.4-.5 6.6-.3 4.4-.5 6.6-.3 4.4-.5 6.6c-.2 2.5-.4 4.9-.7 7.4q-.45 3.75-.6 7.5c-.2 2.5-.4 5-.5 7.6-.2 2.5-.4 5-.5 7.6-.2 2.5-.3 5-.6 7.5-.3 2.7-.6 5.4-1.1 8.1-.5 2.9-1 5.7-1.7 8.6-2.1 9.1-5.5 17.7-11.1 25.2q-3.3 4.5-7.8 7.8c-6.8 5-15 7.2-23.3 7.9-5 .4-9.9.5-14.8-.2-8.2-1.2-16.2-4.8-22.2-10.6-7.5-7.2-11.9-17.2-14.4-27.2-1.7-7-2.4-14.3-2.9-21.5-.5-7.4-.8-14.7-1.1-22.1-.1-4.2-.4-8.4-.4-12.7-.1-5 0-10 0-15 0-4.3-.1-8.7 0-13 .1-5.5.4-11.1.6-16.6.3-8.4.4-16.9 1-25.3zm541.7-50.6c.5-12.5 3.3-24.8 6.2-36.9.7-3.1 1.3-6.2 2.1-9.2 2.4-9.3 6.1-18.5 13.5-25 4.7-4.1 11.4-6.2 17.3-3.5 5.2 2.4 8.6 7.1 10.9 12.1 4.4 9.3 3.5 20.2 1.5 30.1-2.5 12.4-6.9 24.3-9.8 36.5-1.9 8-3.4 16.2-2.2 24.4.9 6.2 3.3 13.4 9.6 16.1 6.7 2.9 13.8-.4 19.4-4 4.3-2.8 7.9-6.3 11.5-9.9 5.3-5.2 10-10.9 14.8-16.6 3.2-3.9 6.2-7.8 9.9-11.2 1.1-1 12.5-10.4 13.3-5.1.5 3.3-1.3 6.9-2.5 9.8-1.8 4.2-3.9 8.2-6.7 11.8-3.2 4.3-6.9 8.2-10.4 12.2-2.4 2.7-4.9 5.1-7.4 7.7-7 7-14.5 13.8-23.3 18.5-3.5 1.9-7.4 3.2-11.3 4.3-3.7 1-7.5 1.7-11.3 1.9-11.7.4-23.3-4.9-31.2-13.4-3.9-4.3-7-9.7-9.1-15.1-1.1-2.7-1.8-5.5-2.5-8.3-2.2-8.6-2.7-17.5-2.4-26.3zm29.2-126c.6-6.3 3.3-12.5 8-16.8 2.7-2.5 6-4.2 9.7-4.3 2.6-.1 5.3.9 7.4 2.6 5.5 4.3 7.8 11.6 7.4 18.4-.1 2.3-.8 4.6-1.6 6.7-1.6 4.3-4.3 8.4-8 11.2-2.1 1.6-4.6 2.9-7.3 3.1-7.7.7-13-5.8-14.8-12.7-.6-2.5-.7-5-.6-7.5zM911 820.4c.3-4.7.6-9.5 1-14.2.6-6.8 1.4-13.5 2.2-20.3 1.5-13.8 3-27.5 4.5-41.3.8-7.6 1.7-15.2 2.6-22.9.7-6.7 1.4-13.5 2.2-20.2.4-3 .9-6 1.3-8.9.6-5.2 1-10.4 1.7-15.6.3-2.7.8-5.4 1.2-8 .5-4.3.9-8.6 1.4-12.8s1.2-8.3 1.8-12.5c.3-2.4.5-4.9.9-7.3 1.6-11.6 3.3-23.2 5.1-34.7.4-2.3.9-4.6 1.3-7 .6-3.9 1.1-7.7 1.7-11.6.5-2.9 1.1-5.8 1.6-8.7.5-3.3.9-6.5 1.5-9.8.4-2.6 1-5.2 1.5-7.8.4-2.7.7-5.3 1.2-8 2.6-15 5.4-29.9 8.7-44.7.6-2.6 1-5.2 1.5-7.7.8-3.6 1.7-7.2 2.6-10.8 2-8 4.5-15.7 9.5-22.4 2.2-3 4.7-5.5 7.8-7.5 3.4-2.2 7-3.5 11.1-3.8 8.2-.6 16.2 3.3 21.9 8.9 5.2 5.2 8.6 12.1 10.7 19.1 3.8 12.1 4 24.9 3.1 37.5-.3 4.6-.9 9.2-1.4 13.8-.6 5.3-.8 10.6-1.4 15.9-1.1 10.7-2.3 21.4-3.5 32-1.1 9.5-2 19-3 28.5-1.9 17.7-3.8 35.5-5.7 53.2l-1.8 16.5c-.6 5.7-1.2 11.3-1.2 17 0 3.4.2 6.7.8 10 .6 2.9 1.6 6 3.9 8.1 2.4 2.2 5.5 2.3 8.6 1.5 6.9-1.7 12.4-6.8 17.8-11.1 7.4-5.9 15-11.6 22.4-17.5 8.7-6.8 17.4-13.5 26.6-19.7 3.7-2.4 7.4-4.7 11.2-6.9 5.9-3.3 11.9-6.4 18.5-7.7 6-1.2 13-.3 17.5 4.3 4.7 4.7 4.8 11.8 3.4 17.9-2.1 9.8-8.5 18.2-15.2 25.4-4 4.3-8.2 8.3-12.6 12.2-1.2 1-2.3 2.1-3.5 3-3.2 2.5-6.5 5-9.7 7.6-2.4 1.9-4.8 3.7-7 5.8-3.3 3.3-6.3 7-8.6 11.1-1.9 3.5-3.1 7.5-3.7 11.5-1.2 8.9 2 17.7 6.1 25.5 1.4 2.8 3.2 5.4 4.7 8 5.1 8.7 10.4 17.4 15.5 26.1 2 3.4 4 6.7 5.9 10.1 2.7 4.8 5.3 9.6 8 14.3 5.5 9.4 11.2 18.6 17.4 27.5 4.2 6.1 8.7 12.1 13.7 17.6 1.7 1.9 3.6 3.6 5.4 5.4 1.1 1.1 2.1 2.2 3.3 3.2 3.8 3.4 7.7 6.8 12.1 9.4 15.6 9.5 33.9 13.5 52 13.3 9.2-.1 18.3-1.8 27.4-3.5 6.1-1.2 12.1-3 18.1-4.7 3.2-.9 6.3-2.1 9.4-3 2.7-.8 5.4-1.3 8.2-1.9 3.8-.8 8-1.3 11.9-.3 2.8.7 4.7 2.7 4.2 5.7-.4 3.3-2.3 6.1-4.3 8.6-3 3.8-6.5 6.9-10.4 9.9-6.5 5.1-13.5 9.6-20.9 13.2-2.6 1.3-5.4 2.3-8.1 3.5-4.6 1.9-9.1 3.6-13.8 5-8.5 2.4-17.2 4-26 4.7-7.6.6-15.2.4-22.8-.2-4.9-.4-9.9-.7-14.8-1.6-8.4-1.5-16.7-3.7-24.9-6.1-17.2-5.1-33.7-12.3-49.2-21.4-1.8-1-3.6-2-5.4-3.1-5.3-3.2-10.3-6.8-15.3-10.4-4.3-3.2-8.3-6.8-12.3-10.3-5.2-4.5-10.1-9.3-15-14.3-1.8-1.8-3.7-3.6-5.4-5.4-5.7-5.9-11-12.2-16.4-18.3-5.1-5.8-10.6-11.2-15.5-17-1.5-1.8-3-3.5-4.4-5.3-2.5-3.2-4.9-6.5-7.7-9.5-3.4-3.7-7.5-7.6-12.6-8.8-7.8-1.8-11.6 6.5-13.5 12.6-2.2 7.3-3 14.8-3.5 22.4-.4 6.4-.8 12.8-1 19.2-.2 5.5-.8 10.9-2 16.2-2.1 9.9-7.5 21.8-18.6 23.7-7.3 1.2-14.3-2.5-20-6.7-3.1-2.2-5.6-4.9-7.9-7.9-1.4-1.8-2.8-3.6-4-5.5-2-3.1-3.5-6.5-4.9-9.9-2.5-6.2-4.3-12.8-5.3-19.5-.6-3.8-.9-7.6-1.2-11.4-.3-4.6-.6-9.2-.6-13.8s.3-9.3.5-13.9z" style="fill:#274352;stroke:#274352"/></svg>